<svg width="21" height="21" viewBox="0 0 21 21" fill="none" xmlns="http://www.w3.org/2000/svg">
<path d="M18.3818 0.199951H2.01819C1.01365 0.199951 0.200012 1.01359 0.200012 2.01813V18.3818C0.200012 19.3863 1.01365 20.2 2.01819 20.2H18.3818C19.3864 20.2 20.2 19.3863 20.2 18.3818V2.01813C20.2 1.01359 19.3855 0.199951 18.3818 0.199951ZM16.2973 7.20631L9.42456 14.079C9.25365 14.25 9.02274 14.3454 8.78183 14.3454C8.54092 14.3454 8.3091 14.25 8.1391 14.079L5.00001 10.94C4.64456 10.5845 4.64456 10.01 5.00001 9.6545C5.35547 9.29904 5.93001 9.29904 6.28547 9.6545L8.78183 12.1509L15.0118 5.92086C15.3673 5.56541 15.9418 5.56541 16.2973 5.92086C16.6527 6.27632 16.6527 6.85086 16.2973 7.20631Z" fill="#FF9D9D"/>
</svg>
