<svg width="24" height="24" viewBox="0 0 24 24" fill="none" xmlns="http://www.w3.org/2000/svg">
<path d="M10.968 10.968L15.093 8.90475L13.0298 13.0297L8.90476 15.093L10.968 10.968ZM22.5 12C22.5 14.0767 21.8842 16.1068 20.7304 17.8335C19.5767 19.5602 17.9368 20.906 16.0182 21.7007C14.0996 22.4955 11.9884 22.7034 9.95156 22.2982C7.91476 21.8931 6.04383 20.8931 4.57538 19.4246C3.10693 17.9562 2.1069 16.0852 1.70176 14.0484C1.29661 12.0116 1.50455 9.90045 2.29927 7.98182C3.09399 6.0632 4.4398 4.42332 6.16652 3.26957C7.89323 2.11581 9.9233 1.5 12 1.5C14.7839 1.50298 17.4528 2.61018 19.4213 4.57867C21.3898 6.54715 22.497 9.21614 22.5 12ZM17.3033 6.69675C17.1919 6.58553 17.0485 6.51215 16.8931 6.48698C16.7378 6.46181 16.5785 6.48613 16.4378 6.5565L10.074 9.738C9.92855 9.81062 9.81063 9.92854 9.738 10.074L6.5565 16.4377C6.48639 16.5785 6.46228 16.7377 6.48757 16.8929C6.51287 17.048 6.5863 17.1914 6.69747 17.3025C6.80865 17.4137 6.95196 17.4871 7.10714 17.5124C7.26232 17.5377 7.42153 17.5136 7.56225 17.4435L13.926 14.262C14.0715 14.1894 14.1894 14.0715 14.262 13.926L17.4435 7.56225C17.5139 7.42151 17.5382 7.2622 17.513 7.10687C17.4879 6.95154 17.4145 6.80807 17.3033 6.69675Z" fill="#FF9D9D"/>
</svg>
