<!DOCTYPE svg PUBLIC "-//W3C//DTD SVG 1.1//EN" "http://www.w3.org/Graphics/SVG/1.1/DTD/svg11.dtd">
<!-- Uploaded to: SVG Repo, www.svgrepo.com, Transformed by: SVG Repo Mixer Tools -->
<svg fill="#ffffff" version="1.1" id="Capa_1" xmlns="http://www.w3.org/2000/svg" xmlns:xlink="http://www.w3.org/1999/xlink" width="800px" height="800px" viewBox="0 0 421.709 421.709" xml:space="preserve" stroke="#ffffff">
<g id="SVGRepo_bgCarrier" stroke-width="0"/>
<g id="SVGRepo_tracerCarrier" stroke-linecap="round" stroke-linejoin="round"/>
<g id="SVGRepo_iconCarrier"> <g> <path d="M421.709,199.503c0,50.802-40.3,92.264-90.595,94.375c-0.219-5.207-1.909-10.369-5.202-14.723 c-1.489-1.961-3.273-3.603-5.22-5.036h6.422c41.151,0,74.616-33.479,74.616-74.616c0-41.147-33.473-74.613-74.616-74.613 c-3.863,0-7.944,0.369-12.477,1.135l-6.384,1.07l-3.596-5.39c-13.895-20.876-37.134-33.338-62.151-33.338 c-2.488,0-5.04,0.128-7.55,0.374l-8.418,0.857l-2.222-8.17c-8.803-32.402-38.371-55.034-71.926-55.034 c-41.133,0-74.608,33.475-74.608,74.613c0,5.166,0.555,10.4,1.652,15.56l1.898,8.933l-8.722,2.689 c-31.496,9.688-52.649,38.348-52.649,71.314c0,41.145,33.482,74.616,74.615,74.616h6.42c-1.95,1.434-3.743,3.086-5.228,5.056 c-3.177,4.235-4.963,9.423-5.194,14.703C40.281,291.761,0,250.305,0,199.503c0-38.838,23.157-72.956,58.47-87.439 c-0.432-3.688-0.656-7.382-0.656-11.057c0-52.156,42.428-94.578,94.578-94.578c39.807,0,75.176,25.103,88.715,61.984 c30.178-0.384,58.3,13.362,76.467,37.048c3.292-0.364,6.444-0.544,9.53-0.544C379.286,104.917,421.709,147.347,421.709,199.503z M303.035,283.383l-62.249,24.586V163.877c0-2.758-2.228-4.987-4.992-4.987h-49.877c-2.745,0-4.985,2.229-4.985,4.987v144.091 l-62.245-24.586c-2.083-0.826-4.47-0.159-5.814,1.637c-0.661,0.887-1.004,1.947-1.004,3.004c0,1.067,0.347,2.15,1.037,3.037 l94,122.267c0.942,1.23,2.411,1.953,3.956,1.953c1.547,0,3.011-0.723,3.959-1.953l93.998-122.267 c1.377-1.773,1.377-4.252,0.032-6.041C307.498,283.224,305.118,282.557,303.035,283.383z"/> </g> </g>
</svg>