<svg width="14" height="18" viewBox="0 0 14 18" fill="none" xmlns="http://www.w3.org/2000/svg">
<path d="M2.80772 16.3734C1.95423 15.4345 1.10077 14.4582 0.557621 13.294C0.0145089 12.0547 -0.140682 10.6277 0.130893 9.27575C0.402467 7.92383 1.02316 6.64699 1.91546 5.55795C1.83788 6.4968 2.18703 7.47318 2.84653 8.18671C2.45857 6.38414 3.07929 4.43134 4.32071 3.00431C5.56212 1.57729 7.26911 0.6384 9.05364 0C8.16137 0.901287 8.04499 2.32831 8.39414 3.53005C8.74329 4.73176 9.4804 5.78327 10.1399 6.87231C10.7994 7.96135 11.4201 9.08796 11.4589 10.3272C11.8081 9.68883 12.196 9.0504 12.4288 8.3369C12.6616 7.62337 12.778 6.87231 12.584 6.15878C13.2823 6.98497 13.6703 7.81113 13.8642 8.86264C14.0582 9.91416 14.0194 11.0032 13.903 12.0547C13.7478 13.2189 13.4375 14.4206 12.778 15.397C12.0021 16.5611 10.7607 17.3873 9.40286 17.8379C6.99754 18.2511 4.63105 17.9131 2.80772 16.3734Z" fill="#F3705A"/>
<path d="M5.7565 17.7629C8.93763 18.9646 12.08 15.3219 10.3342 12.5054C10.3342 12.4678 10.2954 12.4678 10.2954 12.4303C10.4506 13.9699 10.0627 15.0966 9.32556 15.735C9.71351 14.8337 9.44194 13.7822 8.9764 12.8809C8.51087 12.0172 7.85137 11.2286 7.34703 10.4024C6.84269 9.53865 6.45477 8.56223 6.68753 7.58585C5.75646 8.26181 5.09697 9.27576 4.82539 10.3648C4.55382 11.4538 4.70901 12.6556 5.21335 13.6695C4.63143 13.2565 4.2047 12.5805 4.1659 11.867C3.54517 12.5805 3.15725 13.5193 3.19602 14.4582C3.19606 15.9227 4.39866 17.2371 5.7565 17.7629Z" fill="#FFD15C"/>
</svg>
