<svg width="24" height="24" viewBox="0 0 24 24" fill="none" xmlns="http://www.w3.org/2000/svg">
<g clip-path="url(#clip0_85_2375)">
<mask id="path-1-inside-1_85_2375" fill="white">
<path d="M11.8912 12.9788L16.3912 16.3538C16.7227 16.6024 17.1926 16.5352 17.4412 16.2037C17.6899 15.8722 17.6228 15.4024 17.2913 15.1537L13.125 12V5.625C13.125 5.21062 12.7894 4.875 12.375 4.875C11.9606 4.875 11.625 5.21062 11.625 5.625V12.375C11.625 12.624 11.7292 12.8483 11.8912 12.9788Z"/>
</mask>
<path d="M11.8912 12.9788L16.3912 16.3538C16.7227 16.6024 17.1926 16.5352 17.4412 16.2037C17.6899 15.8722 17.6228 15.4024 17.2913 15.1537L13.125 12V5.625C13.125 5.21062 12.7894 4.875 12.375 4.875C11.9606 4.875 11.625 5.21062 11.625 5.625V12.375C11.625 12.624 11.7292 12.8483 11.8912 12.9788Z" fill="#FF9D9D"/>
<path d="M11.8912 12.9788L6.87261 19.2088L6.98046 19.2957L7.09125 19.3787L11.8912 12.9788ZM16.3912 16.3538L11.5912 22.7537L16.3912 16.3538ZM17.2913 15.1537L12.4628 21.5323L12.477 21.5431L12.4913 21.5537L17.2913 15.1537ZM13.125 12H5.125V15.9778L8.29657 18.3786L13.125 12ZM7.09125 19.3787L11.5912 22.7537L21.1912 9.95375L16.6912 6.57875L7.09125 19.3787ZM11.5912 22.7537C15.4574 25.6533 20.9417 24.8699 23.8412 21.0037L11.0412 11.4037C13.4436 8.20064 17.9881 7.5514 21.1912 9.95375L11.5912 22.7537ZM23.8412 21.0037C26.7408 17.1376 25.9574 11.6534 22.0913 8.75375L12.4913 21.5537C9.28812 19.1514 8.63892 14.6069 11.0412 11.4037L23.8412 21.0037ZM22.1197 8.77517L17.9534 5.62142L8.29657 18.3786L12.4628 21.5323L22.1197 8.77517ZM21.125 12V5.625H5.125V12H21.125ZM21.125 5.625C21.125 0.792347 17.2077 -3.125 12.375 -3.125V12.875C8.3711 12.875 5.125 9.6289 5.125 5.625H21.125ZM12.375 -3.125C7.54235 -3.125 3.625 0.792347 3.625 5.625H19.625C19.625 9.6289 16.3789 12.875 12.375 12.875V-3.125ZM3.625 5.625V12.375H19.625V5.625H3.625ZM3.625 12.375C3.625 14.734 4.59602 17.3749 6.87261 19.2088L16.9099 6.74872C18.8625 8.32164 19.625 10.5139 19.625 12.375H3.625Z" fill="#FF9D9D" mask="url(#path-1-inside-1_85_2375)"/>
<mask id="path-3-inside-2_85_2375" fill="white">
<path d="M12.7499 0.75C7.26026 0.75 2.57239 4.71225 1.65739 10.125L1.37239 9.70125C1.14026 9.35738 0.67376 9.26663 0.329885 9.49875C-0.0139896 9.73088 -0.10474 10.1974 0.127385 10.5413L1.62739 12.7913C1.75076 12.9788 1.95176 13.1014 2.17489 13.125H2.24989C2.44864 13.1243 2.63876 13.0448 2.77864 12.9037L4.65364 11.0287C4.94651 10.7359 4.94651 10.2604 4.65364 9.9675C4.36076 9.67463 3.88526 9.67463 3.59239 9.9675L3.12739 10.4362C3.99101 5.121 8.99989 1.51275 14.3148 2.37637C19.6296 3.24 23.2386 8.2485 22.375 13.5637C21.6081 18.2835 17.5315 21.7507 12.7499 21.75C9.73413 21.8048 6.88189 20.382 5.11114 17.94C4.87076 17.6025 4.40239 17.5234 4.06489 17.7638C3.72739 18.0041 3.64826 18.4725 3.88864 18.81C5.93914 21.6495 9.24813 23.3074 12.7499 23.25C18.9633 23.25 23.9999 18.2134 23.9999 12C23.9999 5.78662 18.9633 0.75 12.7499 0.75Z"/>
</mask>
<path d="M12.7499 0.75C7.26026 0.75 2.57239 4.71225 1.65739 10.125L1.37239 9.70125C1.14026 9.35738 0.67376 9.26663 0.329885 9.49875C-0.0139896 9.73088 -0.10474 10.1974 0.127385 10.5413L1.62739 12.7913C1.75076 12.9788 1.95176 13.1014 2.17489 13.125H2.24989C2.44864 13.1243 2.63876 13.0448 2.77864 12.9037L4.65364 11.0287C4.94651 10.7359 4.94651 10.2604 4.65364 9.9675C4.36076 9.67463 3.88526 9.67463 3.59239 9.9675L3.12739 10.4362C3.99101 5.121 8.99989 1.51275 14.3148 2.37637C19.6296 3.24 23.2386 8.2485 22.375 13.5637C21.6081 18.2835 17.5315 21.7507 12.7499 21.75C9.73413 21.8048 6.88189 20.382 5.11114 17.94C4.87076 17.6025 4.40239 17.5234 4.06489 17.7638C3.72739 18.0041 3.64826 18.4725 3.88864 18.81C5.93914 21.6495 9.24813 23.3074 12.7499 23.25C18.9633 23.25 23.9999 18.2134 23.9999 12C23.9999 5.78662 18.9633 0.75 12.7499 0.75Z" fill="#FF9D9D"/>
<path d="M1.65739 10.125L-4.98088 14.5897L6.20472 31.2209L9.54547 11.4584L1.65739 10.125ZM1.37239 9.70125L8.01066 5.23656L8.00309 5.22534L1.37239 9.70125ZM0.127385 10.5413L6.78379 6.10365L6.77099 6.08446L6.75809 6.06534L0.127385 10.5413ZM1.62739 12.7913L8.3104 8.39383L8.29715 8.3737L8.28379 8.35365L1.62739 12.7913ZM2.17489 13.125L1.33254 21.0805L1.75254 21.125H2.17489V13.125ZM2.24989 13.125V21.125H2.26498L2.28007 21.1249L2.24989 13.125ZM2.77864 12.9037L-2.87822 7.2469L-2.88955 7.25822L-2.90083 7.2696L2.77864 12.9037ZM3.59239 9.9675L-2.06447 4.31065L-2.07583 4.32201L-2.08714 4.33341L3.59239 9.9675ZM3.12739 10.4362L-4.76906 9.15323L-8.77227 33.7913L8.80691 16.0703L3.12739 10.4362ZM22.375 13.5637L30.2715 14.8468L30.2715 14.8468L22.375 13.5637ZM12.7499 21.75L12.7511 13.75L12.6779 13.75L12.6047 13.7513L12.7499 21.75ZM5.11114 17.94L-1.40509 22.581L-1.38535 22.6087L-1.36537 22.6363L5.11114 17.94ZM3.88864 18.81L-2.62759 23.451L-2.6124 23.4723L-2.59707 23.4935L3.88864 18.81ZM12.7499 23.25V15.25H12.6844L12.6188 15.2511L12.7499 23.25ZM12.7499 -7.25C3.35624 -7.25 -4.66508 -0.470001 -6.2307 8.79156L9.54547 11.4584C9.80985 9.8945 11.1643 8.75 12.7499 8.75V-7.25ZM8.29566 5.66032L8.01065 5.23657L-5.26588 14.1659L-4.98088 14.5897L8.29566 5.66032ZM8.00309 5.22534C5.30163 1.22334 -0.136205 0.161309 -4.14602 2.86804L4.80579 16.1295C1.48373 18.3719 -3.02111 17.4914 -5.25832 14.1772L8.00309 5.22534ZM-4.14602 2.86804C-8.14804 5.56951 -9.21005 11.0073 -6.50332 15.0172L6.75809 6.06534C9.00057 9.3874 8.12006 13.8922 4.80579 16.1295L-4.14602 2.86804ZM-6.52902 14.9789L-5.02902 17.2289L8.28379 8.35365L6.78379 6.10365L-6.52902 14.9789ZM-5.05563 17.1887C-3.61847 19.3728 -1.27635 20.8043 1.33254 21.0805L3.01724 5.16947C5.17987 5.39846 7.11999 6.5847 8.3104 8.39383L-5.05563 17.1887ZM2.17489 21.125H2.24989V5.125H2.17489V21.125ZM2.28007 21.1249C4.5971 21.1162 6.82063 20.1885 8.4581 18.5379L-2.90083 7.2696C-1.54311 5.90096 0.300171 5.1323 2.2197 5.12506L2.28007 21.1249ZM8.43549 18.5606L10.3105 16.6856L-1.00322 5.3719L-2.87822 7.2469L8.43549 18.5606ZM10.3105 16.6856C13.7276 13.2685 13.7276 7.72772 10.3105 4.31065L-1.00322 15.6244C-3.83454 12.793 -3.83454 8.20322 -1.00322 5.3719L10.3105 16.6856ZM10.3105 4.31065C6.89342 0.893576 1.3526 0.893576 -2.06447 4.31065L9.24924 15.6244C6.41792 18.4557 1.8281 18.4557 -1.00322 15.6244L10.3105 4.31065ZM-2.08714 4.33341L-2.55214 4.80216L8.80691 16.0703L9.27191 15.6016L-2.08714 4.33341ZM11.0238 11.7193C11.1788 10.7654 12.0776 10.1178 13.0317 10.2728L15.5979 -5.52006C5.92216 -7.09228 -3.19679 -0.523424 -4.76906 9.15323L11.0238 11.7193ZM13.0317 10.2728C13.986 10.4279 14.6335 11.3271 14.4786 12.2807L30.2715 14.8468C31.8438 5.16991 25.2732 -3.94789 15.5979 -5.52006L13.0317 10.2728ZM14.4786 12.2807C14.3409 13.1279 13.6091 13.7501 12.7511 13.75L12.7486 29.75C21.4539 29.7514 28.8753 23.4391 30.2715 14.8468L14.4786 12.2807ZM12.6047 13.7513C12.2038 13.7586 11.8238 13.5694 11.5876 13.2437L-1.36537 22.6363C1.93997 27.1946 7.26449 29.8509 12.8951 29.7487L12.6047 13.7513ZM11.6274 13.299C8.82837 9.36907 3.36658 8.43946 -0.576112 11.2475L8.70588 24.28C5.43819 26.6073 0.913146 25.8359 -1.40509 22.581L11.6274 13.299ZM-0.576112 11.2475C-4.50605 14.0465 -5.43565 19.5083 -2.62759 23.451L10.4049 14.169C12.7322 17.4367 11.9608 21.9617 8.70588 24.28L-0.576112 11.2475ZM-2.59707 23.4935C0.984574 28.4534 6.76437 31.3491 12.8809 31.2489L12.6188 15.2511C11.7319 15.2656 10.8937 14.8456 10.3743 14.1265L-2.59707 23.4935ZM12.7499 31.25C23.3815 31.25 31.9999 22.6317 31.9999 12H15.9999C15.9999 13.7951 14.545 15.25 12.7499 15.25V31.25ZM31.9999 12C31.9999 1.36835 23.3815 -7.25 12.7499 -7.25V8.75C14.545 8.75 15.9999 10.2049 15.9999 12H31.9999Z" fill="#FF9D9D" mask="url(#path-3-inside-2_85_2375)"/>
</g>
<defs>
<clipPath id="clip0_85_2375">
<rect width="24" height="24" fill="white"/>
</clipPath>
</defs>
</svg>
