<svg width="24" height="24" viewBox="0 0 24 24" fill="none" xmlns="http://www.w3.org/2000/svg">
<path d="M2 3H22" stroke="white" stroke-width="1.5" stroke-miterlimit="10" stroke-linecap="round" stroke-linejoin="round"/>
<path d="M2 9H11" stroke="white" stroke-width="1.5" stroke-miterlimit="10" stroke-linecap="round" stroke-linejoin="round"/>
<path d="M2 15H8" stroke="white" stroke-width="1.5" stroke-miterlimit="10" stroke-linecap="round" stroke-linejoin="round"/>
<path d="M2 21H6" stroke="white" stroke-width="1.5" stroke-miterlimit="10" stroke-linecap="round" stroke-linejoin="round"/>
<path d="M11.8399 21.9999C13.0439 21.9999 14.0199 21.0239 14.0199 19.8199C14.0199 18.6159 13.0439 17.6399 11.8399 17.6399C10.6359 17.6399 9.65991 18.6159 9.65991 19.8199C9.65991 21.0239 10.6359 21.9999 11.8399 21.9999Z" stroke="white" stroke-width="1.5" stroke-linecap="round" stroke-linejoin="round"/>
<path d="M22 18.3699V9.85993C22 8.04993 20.86 7.79993 19.71 8.10993L15.36 9.29993C14.57 9.51993 14.02 10.1399 14.02 11.0499V12.57V13.59V19.82" stroke="white" stroke-width="1.5" stroke-linecap="round" stroke-linejoin="round"/>
<path d="M19.8199 20.5499C21.0239 20.5499 21.9999 19.5739 21.9999 18.3699C21.9999 17.166 21.0239 16.1899 19.8199 16.1899C18.6159 16.1899 17.6399 17.166 17.6399 18.3699C17.6399 19.5739 18.6159 20.5499 19.8199 20.5499Z" stroke="white" stroke-width="1.5" stroke-linecap="round" stroke-linejoin="round"/>
<path d="M14.02 13.5999L22 11.4199" stroke="white" stroke-width="1.5" stroke-linecap="round" stroke-linejoin="round"/>
</svg>
