<svg width="34" height="34" viewBox="0 0 34 34" fill="none" xmlns="http://www.w3.org/2000/svg">
<path d="M17 5.66675C16.2209 5.66675 15.5834 6.30425 15.5834 7.08341C15.5834 7.86258 16.2209 8.50008 17 8.50008C17.7792 8.50008 18.4167 7.86258 18.4167 7.08341C18.4167 6.30425 17.7792 5.66675 17 5.66675Z" fill="white" stroke="white" stroke-width="1.5"/>
<path d="M17 15.5835C16.2209 15.5835 15.5834 16.221 15.5834 17.0002C15.5834 17.7793 16.2209 18.4168 17 18.4168C17.7792 18.4168 18.4167 17.7793 18.4167 17.0002C18.4167 16.221 17.7792 15.5835 17 15.5835Z" fill="white" stroke="white" stroke-width="1.5"/>
<path d="M17 25.5C16.2209 25.5 15.5834 26.1375 15.5834 26.9167C15.5834 27.6958 16.2209 28.3333 17 28.3333C17.7792 28.3333 18.4167 27.6958 18.4167 26.9167C18.4167 26.1375 17.7792 25.5 17 25.5Z" fill="white" stroke="white" stroke-width="1.5"/>
</svg>
