<svg width="72" height="72" viewBox="0 0 72 72" fill="none" xmlns="http://www.w3.org/2000/svg">
<path d="M35.9153 72C55.7508 72 71.8306 55.8823 71.8306 36C71.8306 16.1177 55.7508 0 35.9153 0C16.0798 0 0 16.1177 0 36C0 55.8823 16.0798 72 35.9153 72Z" fill="#454545"/>
<g clip-path="url(#clip0_2_1694)">
<path d="M38.985 17H44.9255C45.2952 17 45.5949 17.3893 45.5949 17.8695V51.6705C45.5949 52.1507 45.2952 52.54 44.9255 52.54H38.985C38.6153 52.54 38.3156 52.1507 38.3156 51.6705V17.8695C38.3156 17.3893 38.6153 17 38.985 17Z" fill="white"/>
<path d="M26.4345 17H32.375C32.7447 17 33.0444 17.3893 33.0444 17.8695V51.6705C33.0444 52.1507 32.7447 52.54 32.375 52.54H26.4345C26.0648 52.54 25.7651 52.1507 25.7651 51.6705V17.8695C25.7651 17.3893 26.0648 17 26.4345 17Z" fill="white"/>
</g>
<defs>
<clipPath id="clip0_2_1694">
<rect width="27.36" height="35.54" fill="white" transform="translate(22 17)"/>
</clipPath>
</defs>
</svg>
