<svg xmlns="http://www.w3.org/2000/svg" xmlns:xlink="http://www.w3.org/1999/xlink" width="374" zoomAndPan="magnify" viewBox="0 0 280.5 280.5" height="374" preserveAspectRatio="xMidYMid meet" version="1.0"><defs><clipPath id="1f0321056a"><path d="M 70 65.105469 L 210 65.105469 L 210 103 L 70 103 Z M 70 65.105469 " clip-rule="nonzero"/></clipPath><clipPath id="45c6fae6be"><path d="M 65.105469 106 L 214.839844 106 L 214.839844 214.839844 L 65.105469 214.839844 Z M 65.105469 106 " clip-rule="nonzero"/></clipPath></defs><path fill="#ffffff" d="M 139.960938 0 C 178.609375 0 213.597656 15.664062 238.925781 40.992188 C 264.257812 66.324219 279.921875 101.3125 279.921875 139.960938 C 279.921875 178.605469 264.257812 213.597656 238.925781 238.925781 C 213.597656 264.257812 178.609375 279.921875 139.960938 279.921875 C 101.3125 279.921875 66.324219 264.257812 40.992188 238.925781 C 15.664062 213.597656 0 178.605469 0 139.960938 C 0 101.3125 15.664062 66.324219 40.992188 40.992188 C 66.324219 15.664062 101.3125 0 139.960938 0 Z M 227.933594 51.992188 C 205.421875 29.476562 174.316406 15.550781 139.960938 15.550781 C 105.605469 15.550781 74.503906 29.476562 51.992188 51.992188 C 29.476562 74.503906 15.550781 105.601562 15.550781 139.960938 C 15.550781 174.316406 29.476562 205.421875 51.992188 227.933594 C 74.503906 250.445312 105.605469 264.371094 139.960938 264.371094 C 174.316406 264.371094 205.421875 250.445312 227.933594 227.933594 C 250.445312 205.421875 264.371094 174.316406 264.371094 139.960938 C 264.371094 105.601562 250.445312 74.503906 227.933594 51.992188 " fill-opacity="1" fill-rule="nonzero"/><path fill="#ffffff" d="M 122.957031 142.242188 L 122.957031 166.515625 L 156.988281 166.515625 L 156.988281 142.242188 C 148.367188 142.242188 131.578125 142.242188 122.957031 142.242188 Z M 142.242188 156.988281 C 142.242188 158.351562 141.335938 159.257812 139.972656 159.257812 C 138.613281 159.257812 137.703125 158.351562 137.703125 156.988281 L 137.703125 151.769531 C 137.703125 150.410156 138.613281 149.503906 139.972656 149.503906 C 141.335938 149.503906 142.242188 150.410156 142.242188 151.769531 Z M 142.242188 156.988281 " fill-opacity="1" fill-rule="nonzero"/><path fill="#ffffff" d="M 150.410156 128.402344 C 150.410156 122.730469 145.644531 117.96875 139.972656 117.96875 C 134.300781 117.96875 129.539062 122.730469 129.539062 128.402344 L 129.539062 137.703125 L 150.410156 137.703125 Z M 150.410156 128.402344 " fill-opacity="1" fill-rule="nonzero"/><g clip-path="url(#1f0321056a)"><path fill="#ffffff" d="M 209.394531 102.3125 L 209.394531 93.464844 C 209.394531 88.472656 205.3125 84.390625 200.320312 84.390625 L 124.546875 84.390625 L 112.296875 68.511719 C 110.480469 66.242188 107.984375 65.105469 105.035156 65.105469 L 79.625 65.105469 C 74.636719 65.105469 70.550781 69.191406 70.550781 74.183594 L 70.550781 102.3125 Z M 209.394531 102.3125 " fill-opacity="1" fill-rule="nonzero"/></g><g clip-path="url(#45c6fae6be)"><path fill="#ffffff" d="M 212.570312 204.632812 L 147.460938 204.632812 C 146.78125 202.136719 144.738281 200.09375 142.242188 199.414062 L 142.242188 182.171875 L 200.320312 182.171875 C 205.3125 182.171875 209.394531 178.085938 209.394531 173.097656 L 209.394531 106.851562 L 70.550781 106.851562 L 70.550781 173.097656 C 70.550781 178.085938 74.636719 182.171875 79.625 182.171875 L 137.703125 182.171875 L 137.703125 199.414062 C 135.210938 200.09375 133.167969 202.136719 132.488281 204.632812 L 67.375 204.632812 C 66.015625 204.632812 65.105469 205.539062 65.105469 206.898438 C 65.105469 208.261719 66.015625 209.167969 67.375 209.167969 L 132.488281 209.167969 C 133.394531 212.34375 136.570312 214.839844 139.972656 214.839844 C 143.601562 214.839844 146.550781 212.34375 147.460938 209.167969 L 212.570312 209.167969 C 213.933594 209.167969 214.839844 208.261719 214.839844 206.898438 C 214.839844 205.539062 213.933594 204.632812 212.570312 204.632812 Z M 120.691406 171.054688 C 119.328125 171.054688 118.421875 170.148438 118.421875 168.785156 L 118.421875 139.972656 C 118.421875 138.613281 119.328125 137.703125 120.691406 137.703125 L 125 137.703125 L 125 128.402344 C 125 120.234375 131.804688 113.429688 139.972656 113.429688 C 148.140625 113.429688 154.945312 120.234375 154.945312 128.402344 L 154.945312 137.703125 L 159.257812 137.703125 C 160.617188 137.703125 161.527344 138.613281 161.527344 139.972656 L 161.527344 168.785156 C 161.527344 170.148438 160.617188 171.054688 159.257812 171.054688 Z M 139.972656 210.300781 C 138.160156 210.300781 136.570312 208.714844 136.570312 206.898438 C 136.570312 205.085938 138.160156 203.496094 139.972656 203.496094 C 141.789062 203.496094 143.375 205.085938 143.375 206.898438 C 143.375 208.714844 141.789062 210.300781 139.972656 210.300781 Z M 139.972656 210.300781 " fill-opacity="1" fill-rule="nonzero"/></g></svg>