<svg width="20" height="21" viewBox="0 0 20 21" fill="none" xmlns="http://www.w3.org/2000/svg">
<path d="M6.55837 18.2332C5.90004 18.2332 5.27504 18.0749 4.72504 17.7582C3.42504 17.0082 2.70837 15.4832 2.70837 13.4749V7.53324C2.70837 5.51658 3.42504 3.99991 4.72504 3.24991C6.02504 2.49991 7.70004 2.64158 9.45004 3.64991L14.5917 6.61658C16.3334 7.62491 17.3 9.00824 17.3 10.5082C17.3 12.0082 16.3417 13.3916 14.5917 14.3999L9.45004 17.3666C8.44171 17.9416 7.45837 18.2332 6.55837 18.2332ZM6.55837 4.01658C6.10837 4.01658 5.70837 4.11658 5.35004 4.32491C4.45004 4.84158 3.95837 5.98324 3.95837 7.53324V13.4666C3.95837 15.0166 4.45004 16.1499 5.35004 16.6749C6.25004 17.1999 7.48337 17.0499 8.82504 16.2749L13.9667 13.3082C15.3084 12.5332 16.05 11.5416 16.05 10.4999C16.05 9.45824 15.3084 8.46658 13.9667 7.69158L8.82504 4.72491C8.00837 4.25824 7.24171 4.01658 6.55837 4.01658Z" fill="white"/>
</svg>
