<svg width="42" height="42" viewBox="0 0 42 42" fill="none" xmlns="http://www.w3.org/2000/svg">
<path d="M7.64425 14.1367C7.02583 15.6005 6.54679 17.238 6.34437 19.0819C5.42967 27.4143 11.4382 34.9047 19.7706 35.8194C28.1031 36.7341 35.5935 30.7256 36.5082 22.3932C37.4229 14.0607 31.4143 6.57033 23.0819 5.65563C19.9855 5.31572 16.9947 5.93808 14.4185 7.27494" stroke="#F9F9F9" stroke-width="1.5" stroke-linecap="round" stroke-linejoin="round"/>
<path d="M8.95206 12.2512L2.62488 16.6445" stroke="#F9F9F9" stroke-width="1.5" stroke-linecap="round" stroke-linejoin="round"/>
<path d="M8.95117 12.2512L12.5869 18.5832" stroke="#F9F9F9" stroke-width="1.5" stroke-linecap="round" stroke-linejoin="round"/>
<path d="M17.1 26.144C17.724 26.144 18.276 26.012 18.756 25.748C19.244 25.476 19.628 25.112 19.908 24.656C20.188 24.2 20.328 23.684 20.328 23.108C20.328 22.404 20.124 21.82 19.716 21.356C19.316 20.884 18.784 20.596 18.12 20.492L19.956 18.344V17.06H14.472V18.44H18.12L15.804 21.08L16.176 21.86C16.448 21.732 16.752 21.668 17.088 21.668C17.576 21.668 17.964 21.8 18.252 22.064C18.548 22.328 18.696 22.692 18.696 23.156C18.696 23.62 18.548 23.992 18.252 24.272C17.956 24.544 17.572 24.68 17.1 24.68C16.708 24.68 16.36 24.572 16.056 24.356C15.76 24.14 15.54 23.828 15.396 23.42L13.968 23.924C14.08 24.372 14.288 24.764 14.592 25.1C14.904 25.436 15.276 25.696 15.708 25.88C16.148 26.056 16.612 26.144 17.1 26.144ZM25.1679 26.144C25.8879 26.144 26.5159 25.952 27.0519 25.568C27.5879 25.176 28.0039 24.636 28.2999 23.948C28.6039 23.252 28.7559 22.444 28.7559 21.524C28.7559 20.604 28.6039 19.8 28.2999 19.112C28.0039 18.416 27.5839 17.876 27.0399 17.492C26.5039 17.108 25.8759 16.916 25.1559 16.916C24.4519 16.916 23.8319 17.108 23.2959 17.492C22.7599 17.876 22.3399 18.412 22.0359 19.1C21.7399 19.788 21.5919 20.596 21.5919 21.524C21.5919 22.444 21.7399 23.252 22.0359 23.948C22.3399 24.644 22.7599 25.184 23.2959 25.568C23.8399 25.952 24.4639 26.144 25.1679 26.144ZM25.1679 24.656C24.5599 24.656 24.0839 24.376 23.7399 23.816C23.3959 23.256 23.2239 22.492 23.2239 21.524C23.2239 20.548 23.3919 19.784 23.7279 19.232C24.0719 18.68 24.5479 18.404 25.1559 18.404C25.7719 18.404 26.2519 18.684 26.5959 19.244C26.9479 19.796 27.1239 20.556 27.1239 21.524C27.1239 22.492 26.9519 23.256 26.6079 23.816C26.2639 24.376 25.7839 24.656 25.1679 24.656Z" fill="white"/>
</svg>
