<svg width="42" height="42" viewBox="0 0 42 42" fill="none" xmlns="http://www.w3.org/2000/svg">
<path d="M16.115 8.75251C17.6375 8.29751 19.3175 8.00002 21.1725 8.00002C29.555 8.00002 36.345 14.79 36.345 23.1725C36.345 31.555 29.555 38.345 21.1725 38.345C12.79 38.345 6 31.555 6 23.1725C6 20.0575 6.945 17.1525 8.555 14.7375" stroke="#F9F9F9" stroke-width="1.5" stroke-linecap="round" stroke-linejoin="round"/>
<path d="M13.7725 9.31002L18.83 3.50002" stroke="#F9F9F9" stroke-width="1.5" stroke-linecap="round" stroke-linejoin="round"/>
<path d="M13.7725 9.31001L19.67 13.615" stroke="#F9F9F9" stroke-width="1.5" stroke-linecap="round" stroke-linejoin="round"/>
<path d="M16.1 28.144C16.724 28.144 17.276 28.012 17.756 27.748C18.244 27.476 18.628 27.112 18.908 26.656C19.188 26.2 19.328 25.684 19.328 25.108C19.328 24.404 19.124 23.82 18.716 23.356C18.316 22.884 17.784 22.596 17.12 22.492L18.956 20.344V19.06H13.472V20.44H17.12L14.804 23.08L15.176 23.86C15.448 23.732 15.752 23.668 16.088 23.668C16.576 23.668 16.964 23.8 17.252 24.064C17.548 24.328 17.696 24.692 17.696 25.156C17.696 25.62 17.548 25.992 17.252 26.272C16.956 26.544 16.572 26.68 16.1 26.68C15.708 26.68 15.36 26.572 15.056 26.356C14.76 26.14 14.54 25.828 14.396 25.42L12.968 25.924C13.08 26.372 13.288 26.764 13.592 27.1C13.904 27.436 14.276 27.696 14.708 27.88C15.148 28.056 15.612 28.144 16.1 28.144ZM24.1679 28.144C24.8879 28.144 25.5159 27.952 26.0519 27.568C26.5879 27.176 27.0039 26.636 27.2999 25.948C27.6039 25.252 27.7559 24.444 27.7559 23.524C27.7559 22.604 27.6039 21.8 27.2999 21.112C27.0039 20.416 26.5839 19.876 26.0399 19.492C25.5039 19.108 24.8759 18.916 24.1559 18.916C23.4519 18.916 22.8319 19.108 22.2959 19.492C21.7599 19.876 21.3399 20.412 21.0359 21.1C20.7399 21.788 20.5919 22.596 20.5919 23.524C20.5919 24.444 20.7399 25.252 21.0359 25.948C21.3399 26.644 21.7599 27.184 22.2959 27.568C22.8399 27.952 23.4639 28.144 24.1679 28.144ZM24.1679 26.656C23.5599 26.656 23.0839 26.376 22.7399 25.816C22.3959 25.256 22.2239 24.492 22.2239 23.524C22.2239 22.548 22.3919 21.784 22.7279 21.232C23.0719 20.68 23.5479 20.404 24.1559 20.404C24.7719 20.404 25.2519 20.684 25.5959 21.244C25.9479 21.796 26.1239 22.556 26.1239 23.524C26.1239 24.492 25.9519 25.256 25.6079 25.816C25.2639 26.376 24.7839 26.656 24.1679 26.656Z" fill="white"/>
</svg>
