<!DOCTYPE svg PUBLIC "-//W3C//DTD SVG 1.1//EN" "http://www.w3.org/Graphics/SVG/1.1/DTD/svg11.dtd">
<!-- Uploaded to: SVG Repo, www.svgrepo.com, Transformed by: SVG Repo Mixer Tools -->
<svg fill="#490D0D" height="800px" width="800px" version="1.1" id="Layer_1" xmlns="http://www.w3.org/2000/svg" xmlns:xlink="http://www.w3.org/1999/xlink" viewBox="0 0 297 297" xml:space="preserve" stroke="#490D0D">
<g id="SVGRepo_bgCarrier" stroke-width="0"/>
<g id="SVGRepo_tracerCarrier" stroke-linecap="round" stroke-linejoin="round"/>
<g id="SVGRepo_iconCarrier"> <g> <g> <g> <path d="M162.053,27.804C144.124,9.875,120.285,0,94.929,0S45.735,9.875,27.806,27.804C9.875,45.734,0.001,69.572,0.001,94.929 c0,25.356,9.875,49.195,27.805,67.125c18.503,18.503,42.817,27.757,67.124,27.759c24.312,0.002,48.615-9.251,67.125-27.76 C199.066,125.04,199.066,64.817,162.053,27.804z M142.408,149.281c-1.758,0-3.518-0.671-4.859-2.013 c-2.685-2.685-2.685-7.036-0.001-9.72c23.5-23.501,23.5-61.738,0-85.237c-11.383-11.385-26.519-17.653-42.618-17.653 S63.696,40.927,52.312,52.31c-2.685,2.685-7.037,2.684-9.72,0.001c-2.685-2.685-2.685-7.036-0.001-9.72 c13.98-13.98,32.567-21.68,52.339-21.68c19.77,0,38.358,7.699,52.339,21.679c28.857,28.859,28.857,75.817-0.001,104.677 C145.926,148.609,144.166,149.281,142.408,149.281z"/> <path d="M289.566,253.669L187.599,151.703c-4.376,7.144-9.647,13.89-15.826,20.069c-6.179,6.179-12.926,11.45-20.071,15.827 l101.966,101.965c4.794,4.795,11.169,7.436,17.949,7.436c6.779,0,13.153-2.64,17.948-7.435 c4.793-4.794,7.434-11.169,7.434-17.948C296.999,264.837,294.359,258.463,289.566,253.669z"/> </g> </g> </g> </g>
</svg>