<svg width="20" height="21" viewBox="0 0 20 21" fill="none" xmlns="http://www.w3.org/2000/svg">
<g clip-path="url(#clip0_2_1873)">
<path d="M12.8046 15.3425L13.1819 15.5354L13.434 15.1948C13.9851 14.4502 14.8675 13.9688 15.8594 13.9688C17.5217 13.9688 18.875 15.322 18.875 16.9844C18.875 18.6467 17.5217 20 15.8594 20C14.197 20 12.8438 18.6467 12.8438 16.9844C12.8438 16.6727 12.8912 16.3727 12.9789 16.0906L13.1039 15.6885L12.729 15.4969L7.22663 12.685L6.84353 12.4892L6.5928 12.8388C6.04385 13.6042 5.14876 14.1016 4.14062 14.1016C2.47825 14.1016 1.125 12.7483 1.125 11.0859C1.125 9.42356 2.47825 8.07031 4.14062 8.07031C5.0425 8.07031 5.85341 8.46817 6.40772 9.10004L6.68313 9.41398L7.0411 9.1989L12.8391 5.71531L13.2005 5.49822L13.0476 5.1054C12.9162 4.76762 12.8438 4.4004 12.8438 4.01562C12.8438 2.35325 14.197 1 15.8594 1C17.5217 1 18.875 2.35325 18.875 4.01562C18.875 5.678 17.5217 7.03125 15.8594 7.03125C14.9419 7.03125 14.1184 6.6194 13.5636 5.96828L13.2888 5.64569L12.9255 5.86395L7.14195 9.33887L6.77523 9.5592L6.93619 9.95558C7.07789 10.3045 7.15625 10.6858 7.15625 11.0859C7.15625 11.3814 7.11341 11.6665 7.0341 11.936L6.91703 12.3337L7.28622 12.5224L12.8046 15.3425ZM18.7031 4.01562C18.7031 2.44714 17.4279 1.17188 15.8594 1.17188C14.2909 1.17188 13.0156 2.44714 13.0156 4.01562C13.0156 5.58411 14.2909 6.85938 15.8594 6.85938C17.4279 6.85938 18.7031 5.58411 18.7031 4.01562ZM1.29688 11.0859C1.29688 12.6544 2.57214 13.9297 4.14062 13.9297C5.70911 13.9297 6.98438 12.6544 6.98438 11.0859C6.98438 9.51745 5.70911 8.24219 4.14062 8.24219C2.57214 8.24219 1.29688 9.51745 1.29688 11.0859ZM13.0156 16.9844C13.0156 18.5529 14.2909 19.8281 15.8594 19.8281C17.4279 19.8281 18.7031 18.5529 18.7031 16.9844C18.7031 15.4159 17.4279 14.1406 15.8594 14.1406C14.2909 14.1406 13.0156 15.4159 13.0156 16.9844Z" fill="white" stroke="white"/>
</g>
<defs>
<clipPath id="clip0_2_1873">
<rect width="20" height="20" fill="white" transform="translate(0 0.5)"/>
</clipPath>
</defs>
</svg>
