<svg width="34" height="34" viewBox="0 0 34 34" fill="none" xmlns="http://www.w3.org/2000/svg">
<ellipse cx="16.9999" cy="16.2917" rx="9.91667" ry="9.20833" fill="white"/>
<path d="M16.9999 2.83333C9.17992 2.83333 2.83325 9.17999 2.83325 17C2.83325 24.82 9.17992 31.1667 16.9999 31.1667C24.8199 31.1667 31.1666 24.82 31.1666 17C31.1666 9.17999 24.8199 2.83333 16.9999 2.83333ZM20.7683 19.4508L18.9549 20.4992L17.1416 21.5475C14.8041 22.8933 12.8916 21.7883 12.8916 19.0967V17V14.9033C12.8916 12.1975 14.8041 11.1067 17.1416 12.4525L18.9549 13.5008L20.7683 14.5492C23.1058 15.895 23.1058 18.105 20.7683 19.4508Z" fill="#454545"/>
</svg>
